<?xml version="1.0" encoding="utf-8"?>
<!-- Generator: Adobe Illustrator 16.2.0, SVG Export Plug-In . SVG Version: 6.00 Build 0)  -->
<!DOCTYPE svg PUBLIC "-//W3C//DTD SVG 1.1//EN" "http://www.w3.org/Graphics/SVG/1.1/DTD/svg11.dtd">
<svg version="1.1" id="Layer_1" xmlns="http://www.w3.org/2000/svg" xmlns:xlink="http://www.w3.org/1999/xlink" x="0px" y="0px"
	 width="260px" height="50px" viewBox="0 0 260 50" enable-background="new 0 0 260 50" xml:space="preserve">
<g>
	<path fill="#00B5AD" d="M201.628,13.504c-5.946,0.415-10.763,5.232-11.179,11.178c-0.492,7.044,5.099,12.933,12.041,12.933
		c3.507,0,6.834-1.521,9.131-4.176l0.707-0.815c0.282-0.326,0.247-0.819-0.079-1.103l-1.633-1.412
		c-0.326-0.283-0.819-0.248-1.101,0.078l-0.707,0.817c-1.59,1.836-3.894,2.89-6.318,2.89c-3.525,0-6.547-2.195-7.77-5.291
		c-0.228-0.574,0.182-1.199,0.799-1.199h18.521c0.288,0,0.521-0.232,0.521-0.52v-1.34C214.562,18.603,208.672,13.012,201.628,13.504
		 M209.582,23.684h-14.184c-0.541,0-0.925-0.54-0.736-1.047c1.184-3.175,4.246-5.442,7.828-5.442s6.646,2.267,7.828,5.442
		C210.507,23.144,210.123,23.684,209.582,23.684"/>
	<path fill="#00B5AD" d="M242.296,24.693c-0.409-5.937-5.208-10.753-11.145-11.186c-3.026-0.222-5.837,0.687-8.063,2.34
		c-0.489,0.364-1.184,0.029-1.184-0.581V6.57c0-0.287-0.232-0.52-0.52-0.52h-2.68c-0.288,0-0.521,0.233-0.521,0.52v19.252h0.014
		c0.15,6.527,5.495,11.793,12.058,11.793C237.192,37.615,242.781,31.732,242.296,24.693 M230.255,33.895
		c-4.604,0-8.351-3.746-8.351-8.351c0-4.604,3.746-8.349,8.351-8.349c4.604,0,8.35,3.745,8.35,8.349
		C238.604,30.148,234.858,33.895,230.255,33.895"/>
	<path fill="#00B5AD" d="M185.703,13.474h-2.16c-0.432,0-0.781,0.349-0.781,0.781v12.994c0,3.512-2.725,6.507-6.234,6.641
		c-3.689,0.14-6.735-2.821-6.735-6.481v-1.86h-0.009h-0.007V14.255c0-0.432-0.349-0.781-0.779-0.781h-2.161
		c-0.432,0-0.78,0.349-0.78,0.781V27.48c-0.039,3.512-2.879,6.366-6.39,6.414c-3.616,0.047-6.573-3.041-6.573-6.656V14.255
		c0-0.432-0.351-0.781-0.781-0.781h-2.16c-0.431,0-0.78,0.349-0.78,0.781v12.92c0,5.58,4.38,10.304,9.959,10.437
		c3.552,0.086,6.705-1.66,8.597-4.352c1.893,2.691,5.046,4.438,8.598,4.352c5.579-0.133,9.959-4.856,9.959-10.437v-12.92
		C186.483,13.823,186.134,13.474,185.703,13.474"/>
	<path fill="#67625B" d="M244.133,35.415c-1.326,0-1.326,2.01,0,2.01C245.458,37.425,245.458,35.415,244.133,35.415"/>
	<path fill="#67625B" d="M251.155,29.411c-2.087-0.022-4.199,1.347-4.199,4.096c0,2.763,2.112,4.108,4.211,4.108
		c2.1,0,4.119-1.301,4.119-4.108C255.286,30.7,253.222,29.434,251.155,29.411 M251.19,36.132c-1.347,0.034-2.865-0.741-2.865-2.625
		c0-1.882,1.507-2.636,2.854-2.612c1.312,0.022,2.727,0.73,2.727,2.612C253.905,35.391,252.502,36.098,251.19,36.132"/>
	<path fill="#67625B" d="M255.104,23.006v-1.792h-0.103l-2.728,2.419c-0.308-1.517-1.415-2.019-2.51-2.019
		c-1.381,0-2.637,0.992-2.646,2.875c0,1.267-0.013,2.533-0.013,3.8h7.999v-1.506h-2.671v-1.449L255.104,23.006z M251.076,26.783
		h-2.557v-2.294c0-0.947,0.639-1.369,1.278-1.369c0.639,0,1.278,0.411,1.278,1.369V26.783z"/>
	<path fill="#67625B" d="M251.213,20.914c2.1,0,4.073-1.221,4.073-4.222c0-1.403-0.535-2.396-1.437-3.184h-3.367v3.424h1.346v-2.043
		h1.415c0.502,0.628,0.64,1.175,0.64,1.803c0,1.986-1.357,2.75-2.67,2.75c-1.644,0-2.943-1.038-2.943-2.75
		c0-0.696,0.284-1.495,0.798-2.031l-0.958-0.936c-0.811,0.822-1.222,1.895-1.222,2.967C246.888,19.51,248.965,20.914,251.213,20.914
		"/>
	<path fill="#67625B" d="M116.195,13.032c-6.656,0-12.071,5.414-12.071,12.07c0,6.657,5.415,12.071,12.071,12.071
		s12.07-5.414,12.07-12.071C128.266,18.446,122.852,13.032,116.195,13.032 M116.195,33.452c-4.604,0-8.35-3.745-8.35-8.35
		c0-4.604,3.746-8.349,8.35-8.349c4.604,0,8.35,3.745,8.35,8.349C124.545,29.707,120.799,33.452,116.195,33.452"/>
	<path fill="#67625B" d="M144.816,13.702h-1.08c-6.667,0-12.07,5.404-12.07,12.071v10.62c0,0.431,0.35,0.781,0.781,0.781h2.159
		c0.432,0,0.78-0.351,0.78-0.781v-10.62c0-4.612,3.739-8.35,8.35-8.35h1.08c0.432,0,0.781-0.349,0.781-0.78v-2.16
		C145.598,14.051,145.248,13.702,144.816,13.702"/>
	<path fill="#67625B" d="M90.369,13.035c-3.552-0.085-6.705,1.66-8.598,4.352c-1.892-2.692-5.045-4.437-8.597-4.352
		c-5.579,0.133-9.959,4.858-9.959,10.438v12.92c0,0.432,0.35,0.78,0.781,0.78h2.16c0.431,0,0.78-0.349,0.78-0.78V23.397
		c0-3.512,2.726-6.507,6.235-6.64c3.69-0.14,6.736,2.821,6.736,6.481v1.86h0.007h0.007v11.294c0,0.432,0.349,0.78,0.78,0.78h2.16
		c0.431,0,0.781-0.349,0.781-0.78V23.179c0.034-3.637,3.07-6.569,6.747-6.42c3.502,0.141,6.217,3.133,6.217,6.638v12.996
		c0,0.432,0.35,0.78,0.781,0.78h2.16c0.431,0,0.78-0.349,0.78-0.78v-12.92C100.327,17.893,95.947,13.167,90.369,13.035"/>
	<path fill="#00B5AD" d="M27.276,16.994c-1.175-1.039-2.948-1.04-4.125,0l-4.922,4.357l2.64,2.338l4.345-3.846l14.199,12.569
		c2.822,2.859,2.81,7.481-0.035,10.328c-1.385,1.383-3.225,2.146-5.182,2.146c-1.958,0-3.798-0.764-5.23-2.193l-3.752-3.478
		l-3.8,3.524c-1.384,1.383-3.224,2.146-5.182,2.146c-1.957,0-3.797-0.764-5.182-2.146c-2.845-2.847-2.857-7.469-0.035-10.328
		l3.956-3.502l-2.64-2.338l-3.678,3.256L8.577,29.9c-2.046,2.045-3.172,4.764-3.172,7.657s1.126,5.612,3.172,7.657
		c2.045,2.045,4.764,3.172,7.656,3.172c2.893,0,5.612-1.127,7.609-3.126l1.373-1.272l1.325,1.227
		c2.045,2.045,4.764,3.172,7.657,3.172c2.892,0,5.611-1.127,7.656-3.172c2.046-2.045,3.172-4.764,3.172-7.657
		s-1.126-5.612-3.172-7.657L27.276,16.994z"/>
	<path fill="#67625B" d="M34.196,1.876c-2.893,0-5.612,1.126-7.609,3.125l-1.373,1.273l-1.325-1.226
		c-2.045-2.046-4.764-3.172-7.657-3.172c-2.892,0-5.611,1.126-7.656,3.172C6.53,7.093,5.404,9.812,5.404,12.705
		c0,2.892,1.126,5.611,3.172,7.656L23.152,33.27c1.175,1.039,2.948,1.039,4.125-0.002l4.922-4.356l-2.64-2.337l-4.345,3.845
		L11.016,17.851c-2.822-2.86-2.81-7.483,0.035-10.329c1.385-1.384,3.225-2.146,5.182-2.146c1.958,0,3.798,0.762,5.23,2.193
		l3.752,3.477l3.8-3.524c1.384-1.384,3.224-2.146,5.182-2.146s3.797,0.762,5.182,2.146c2.845,2.846,2.857,7.469,0.035,10.329
		l-3.956,3.502l2.64,2.338l3.678-3.256l0.077-0.074c2.046-2.045,3.172-4.764,3.172-7.656c0-2.893-1.126-5.612-3.172-7.657
		C39.808,3.002,37.088,1.876,34.196,1.876"/>
</g>
</svg>
